<svg width="20" height="25" viewBox="0 0 20 25" fill="none" xmlns="http://www.w3.org/2000/svg">
<path d="M15.8804 0.583252C17.6033 0.583252 19 1.73454 19 3.15476V22.001C19 23.3962 16.9654 24.1061 15.7504 23.1342L10 18.5351L4.24956 23.1342C3.03456 24.1056 1 23.3962 1 22.0006V3.15476C1 1.73454 2.39669 0.583252 4.11962 0.583252H15.8804Z" fill="#848587"/>
<path d="M16.9771 24.1425C16.53 24.1425 16.0829 24.0217 15.6962 23.7679L9.82375 19.9858C9.72708 19.9254 9.59417 19.9254 9.4975 19.9858L3.625 23.7679C2.9 24.2392 1.98167 24.2754 1.22042 23.8525C0.47125 23.4417 0 22.6562 0 21.7862V2.11458C0 0.9425 0.9425 0 2.11458 0H17.2308C18.3908 0 19.3333 0.9425 19.3333 2.11458V21.7862C19.3333 22.6442 18.8621 23.4417 18.1008 23.8525C17.7504 24.0458 17.3638 24.1425 16.9771 24.1425ZM16.6871 22.2454C16.9287 22.4025 17.1583 22.3058 17.2429 22.2696C17.3275 22.2212 17.5208 22.0883 17.5208 21.7862V2.11458C17.5208 1.94542 17.3879 1.8125 17.2188 1.8125H2.11458C1.94542 1.8125 1.8125 1.94542 1.8125 2.11458V21.7862C1.8125 22.0762 2.00583 22.2212 2.09042 22.2696C2.175 22.3179 2.40458 22.4146 2.64625 22.2454L8.51875 18.4633C9.21958 18.0163 10.1138 18.0163 10.8146 18.4633L16.6871 22.2454Z" fill="#848587"/>
</svg>
