<svg width="242" height="253" viewBox="0 0 242 253" fill="none" xmlns="http://www.w3.org/2000/svg">
<path d="M49.3649 169C49.3649 169 -8.73551 169 58.3022 253H84L49.3649 169Z" fill="#1F3C88"/>
<path d="M173.472 158C173.472 158 202.518 207.667 93.9245 193.413L113.533 253L73.2833 252.782C73.2833 252.782 8.7099 181.046 49.5257 165.128L173.472 158Z" fill="#3A6BEA"/>
<path d="M118.802 66.5995C118.802 66.5995 70.6837 58.0359 61.5947 163.868L178.518 158.234C178.518 158.234 196.546 85.7518 140.209 67.3512L118.802 66.5995Z" fill="#FBC343"/>
<path d="M102.672 165.812H48.2182V174.575H102.672V165.812Z" fill="#E5ECFF"/>
<path d="M106.787 152.228C106.787 152.228 79.3703 147.159 69.9821 151.949C61.8058 156.117 63.6926 160.305 66.7913 159.553L66.5574 160.654C66.0972 162.832 67.7769 164.873 70.0051 164.846C71.6541 164.823 73.2955 165.026 74.8871 165.448C82.538 167.473 106.388 173.548 112.041 172.136L116.267 166.127L106.783 152.232L106.787 152.228Z" fill="#E28B6D"/>
<path d="M112.045 172.132C112.045 172.132 163.872 186.027 178.518 158.238L154.108 140.961C154.108 140.961 136.455 153.356 106.787 152.228L112.045 172.132Z" fill="#FBC343"/>
<path d="M81.4719 174.575H18.5924L0.000106812 112.329H62.8834L81.4719 174.575Z" fill="#102048"/>
<path d="M106.783 153.264C106.281 153.264 105.836 152.896 105.759 152.382C105.675 151.818 106.066 151.289 106.63 151.204C107.079 151.139 151.684 144.474 162.161 140.754C162.698 140.562 163.293 140.846 163.484 141.383C163.676 141.92 163.392 142.514 162.856 142.706C152.186 146.491 108.777 152.98 106.937 153.252C106.887 153.26 106.833 153.264 106.783 153.264Z" fill="#E49B31"/>
<path d="M85.2263 150.181C84.6932 150.181 84.2406 149.77 84.1946 149.23C84.1869 149.122 83.3125 138.219 83.5196 124.263C83.7114 111.355 84.8888 93.1074 89.4218 79.47C89.6021 78.9254 90.1888 78.6339 90.7295 78.8142C91.2703 78.9944 91.5656 79.5812 91.3853 80.1219C82.8562 105.778 86.2234 148.627 86.2579 149.061C86.3039 149.632 85.8821 150.131 85.3107 150.177C85.2838 150.177 85.2532 150.177 85.2263 150.177V150.181Z" fill="#E49B31"/>
<path d="M119.462 84.5322C115.723 84.5322 113.054 83.351 113.004 83.328C112.486 83.0902 112.256 82.4766 112.494 81.955C112.731 81.4373 113.345 81.2072 113.863 81.445C114.223 81.606 122.415 85.1803 129.805 78.2657C130.223 77.8745 130.875 77.8975 131.266 78.3156C131.657 78.7336 131.634 79.3894 131.216 79.7767C127.19 83.5427 122.875 84.5322 119.458 84.5322H119.462Z" fill="#E49B31"/>
<path d="M151.818 145.18C151.772 145.18 151.73 145.18 151.684 145.172C151.116 145.099 150.717 144.578 150.79 144.014C153.812 120.831 141.717 98.2924 141.594 98.0661C141.322 97.5638 141.506 96.9348 142.008 96.6625C142.51 96.3864 143.139 96.5743 143.412 97.0767C143.538 97.3068 155.956 120.421 152.846 144.282C152.777 144.804 152.332 145.184 151.822 145.184L151.818 145.18Z" fill="#E49B31"/>
<path d="M130.614 64.8699C130.614 68.9389 127.949 72.6781 123.88 73.8938C118.821 75.401 113.552 72.4902 112.106 67.4701C112.045 67.3052 112.003 67.1403 111.961 66.9524L109.318 55.3667L109.172 54.7263L120.014 44.0073L126.994 47.4972L130.38 62.8028C130.526 63.4855 130.606 64.1873 130.606 64.8699H130.614Z" fill="#E28B6D"/>
<path d="M118.737 55.3667C118.737 55.3667 117.951 60.6322 112.106 67.4701C112.045 67.3052 112.003 67.1403 111.96 66.9524L109.318 55.3667H118.737Z" fill="#102048"/>
<path d="M91.7536 28.7783C91.7536 28.7783 89.9473 75.5045 118.733 55.3705L125.575 42.7187L114.99 25.4226L91.7536 28.7783Z" fill="#E28B6D"/>
<path d="M92.2139 30.0324C92.2139 30.0324 95.0173 35.2902 113.088 33.7409C113.088 33.7409 114.902 52.4444 126.089 56.057L134.695 54.3351C138.652 15.0949 122.817 5.11225 103.543 13.3729C82.3731 5.11225 73.5909 27.7275 92.1295 37.9671C92.072 35.0103 91.9224 32.9815 92.2139 30.0324Z" fill="#102048"/>
<path d="M126.089 56.057C126.089 56.057 121.099 91.512 134.522 89.1036C147.945 86.6952 150.871 67.0751 134.695 54.3389L126.089 56.0608V56.057Z" fill="#102048"/>
<path d="M130.74 57.5803C134.729 56.4312 137.71 54.6202 137.397 53.5354C137.085 52.4506 133.598 52.5028 129.609 53.6519C125.619 54.8011 122.639 56.6121 122.951 57.6969C123.264 58.7817 126.751 58.7295 130.74 57.5803Z" fill="#FBC343"/>
<path d="M94.3536 41.2269C94.3536 41.8559 94.8637 42.3659 95.4926 42.3659C96.1216 42.3659 96.6317 41.8559 96.6317 41.2269C96.6317 40.598 96.1216 40.0879 95.4926 40.0879C94.8637 40.0879 94.3536 40.598 94.3536 41.2269Z" fill="#102048"/>
<path d="M102.649 41.2882C103.369 41.2882 103.953 40.7044 103.953 39.9843C103.953 39.2642 103.369 38.6804 102.649 38.6804C101.929 38.6804 101.345 39.2642 101.345 39.9843C101.345 40.7044 101.929 41.2882 102.649 41.2882Z" fill="#102048"/>
<path d="M98.3766 48.1991C98.1235 48.1991 97.9011 48.1761 97.7362 48.1531C97.1188 48.061 96.6126 47.7695 96.3134 47.3323C96.0565 46.9527 95.9721 46.5117 96.0679 46.0515C96.3517 44.7322 98.0929 43.6085 98.4419 43.3937C98.6835 43.2442 99.0056 43.3209 99.1552 43.5663C99.3047 43.8118 99.2281 44.1301 98.9826 44.2797C98.1657 44.7782 97.2223 45.6181 97.0804 46.27C97.0421 46.4541 97.0689 46.5998 97.1686 46.7494C97.299 46.9412 97.5598 47.0793 97.8857 47.1253C98.3613 47.1943 98.7985 47.1674 99.0785 47.0447C99.3393 46.9335 99.6461 47.0524 99.7573 47.3132C99.8724 47.574 99.7497 47.8807 99.4889 47.992C99.1284 48.1492 98.7256 48.1952 98.3728 48.1952L98.3766 48.1991Z" fill="#102048"/>
<path d="M99.9222 52.5518C99.3853 52.5518 98.8139 52.4636 98.2079 52.2527C97.9395 52.1568 97.7937 51.8653 97.8896 51.593C97.9816 51.3246 98.277 51.1789 98.5493 51.2748C101.479 52.2949 103.531 49.7714 103.619 49.6641C103.796 49.4416 104.122 49.4032 104.348 49.5796C104.574 49.7561 104.609 50.082 104.432 50.3045C104.409 50.3313 102.622 52.548 99.9222 52.548V52.5518Z" fill="#102048"/>
<path d="M100.49 36.9355C101.172 37.8214 101.928 37.3995 104.026 37.3267C104.505 37.3113 107.113 37.411 106.994 36.7859C106.91 36.3449 105.345 35.5165 103.6 35.4321C102.634 35.3861 101.817 35.5165 100.996 35.8041C100.797 35.8732 100.597 35.9614 100.463 36.0994C100.233 36.3334 100.256 36.6248 100.49 36.9316V36.9355Z" fill="#102048"/>
<path d="M97.2646 37.0889C97.0076 38.017 96.2829 37.8329 94.6223 38.2739C94.2426 38.3737 92.233 39.087 92.1332 38.5194C92.0604 38.1167 93.0268 37.0276 94.3653 36.5367C95.1054 36.2644 95.7843 36.18 96.5168 36.2337C96.697 36.2452 96.8772 36.2759 97.0268 36.3641C97.2799 36.5098 97.3528 36.7706 97.2646 37.0928V37.0889Z" fill="#102048"/>
<path opacity="0.4" d="M110.173 48.0954C111.904 48.0954 113.307 46.6927 113.307 44.9622C113.307 43.2318 111.904 41.829 110.173 41.829C108.443 41.829 107.04 43.2318 107.04 44.9622C107.04 46.6927 108.443 48.0954 110.173 48.0954Z" fill="#EB5D60"/>
<path d="M210.627 0.647904C194.09 0.647904 180.685 14.0535 180.685 30.5901C180.685 35.8622 182.058 40.8116 184.452 45.1132L178.178 60.3829L192.891 54.6724C197.86 58.3381 203.98 60.5298 210.627 60.5298C227.164 60.5298 240.569 47.1242 240.569 30.5877C240.569 14.0511 227.164 0.645508 210.627 0.645508V0.647904Z" fill="white"/>
<path d="M177 61.5365L183.734 45.1541C181.314 40.6936 180.037 35.6647 180.037 30.59C180.037 13.7211 193.761 0 210.63 0C227.498 0 241.22 13.7235 241.22 30.59C241.22 47.4566 227.496 61.1801 210.63 61.1801C204.201 61.1801 198.043 59.1859 192.797 55.407L177.002 61.5365H177ZM192.99 53.9378L193.276 54.1497C198.358 57.8997 204.358 59.8795 210.627 59.8795C226.778 59.8795 239.919 46.7389 239.919 30.5876C239.919 14.4364 226.778 1.29576 210.627 1.29576C194.476 1.29576 181.335 14.4364 181.335 30.5876C181.335 35.5467 182.609 40.46 185.02 44.7952L185.172 45.0698L179.353 59.2268L192.987 53.9354L192.99 53.9378Z" fill="#86A7FF"/>
<path d="M196.822 25.2481C196.822 21.0188 199.401 18.3309 203.057 18.3309C206.713 18.3309 209.257 20.9827 209.257 25.2481C209.257 29.5135 206.711 32.1652 203.057 32.1652C199.404 32.1652 196.822 29.4773 196.822 25.2481ZM205.673 25.2481C205.673 22.5602 204.635 21.2693 203.057 21.2693C201.48 21.2693 200.439 22.5963 200.439 25.2481C200.439 27.8998 201.513 29.2269 203.057 29.2269C204.601 29.2269 205.673 27.9359 205.673 25.2481ZM218.004 18.6175H222.267L205.136 43.7066H200.868L218.002 18.6175H218.004ZM213.881 37.0761C213.881 32.8468 216.463 30.1589 220.083 30.1589C223.703 30.1589 226.318 32.8492 226.318 37.0761C226.318 41.303 223.739 43.9932 220.083 43.9932C216.427 43.9932 213.881 41.303 213.881 37.0761ZM222.701 37.0761C222.701 34.4244 221.658 33.0973 220.083 33.0973C218.508 33.0973 217.467 34.3882 217.467 37.0761C217.467 39.7639 218.541 41.0549 220.083 41.0549C221.624 41.0549 222.701 39.7302 222.701 37.0761Z" fill="#86A7FF"/>
</svg>
