<svg width="51" height="50" viewBox="0 0 51 50" fill="none" xmlns="http://www.w3.org/2000/svg">
<circle cx="25.4531" cy="25.0022" r="24.7158" fill="#F5F5F5"/>
<path fill-rule="evenodd" clip-rule="evenodd" d="M38.6344 25.3138C38.6344 24.3398 38.5464 23.4046 38.3847 22.5056H25.4531V27.8169H32.8432C32.525 29.5334 31.5574 30.9874 30.1034 31.9614V35.4061H34.5416C37.1377 33.0156 38.6357 29.4959 38.6357 25.3138H38.6344Z" fill="#3E82F1"/>
<path fill-rule="evenodd" clip-rule="evenodd" d="M25.4532 38.7331C29.1605 38.7331 32.2689 37.503 34.5404 35.4061L30.1022 31.9614C28.8721 32.7854 27.3004 33.2718 25.4519 33.2718C21.8753 33.2718 18.8484 30.8567 17.7682 27.6112H13.1826V31.1685C15.4424 35.6558 20.085 38.7331 25.4532 38.7331Z" fill="#32A753"/>
<path fill-rule="evenodd" clip-rule="evenodd" d="M17.7695 27.6112C17.4953 26.7873 17.3388 25.9076 17.3388 25.0022C17.3388 24.0967 17.4953 23.2171 17.7695 22.3931V18.8358H13.1826C12.2525 20.6895 11.7222 22.7863 11.7222 25.0022C11.7222 27.218 12.2525 29.3149 13.1826 31.1685L17.7695 27.6112Z" fill="#F9BB00"/>
<path fill-rule="evenodd" clip-rule="evenodd" d="M25.4532 16.7325C27.4686 16.7325 29.2795 17.4258 30.7024 18.7853L34.6413 14.8465C32.2625 12.6319 29.1541 11.2711 25.4532 11.2711C20.085 11.2711 15.4424 14.3484 13.1826 18.8358L17.7695 22.393C18.8497 19.1475 21.8766 16.7325 25.4532 16.7325Z" fill="#E74133"/>
</svg>
