<svg width="25" height="24" viewBox="0 0 25 24" fill="none" xmlns="http://www.w3.org/2000/svg">
<path d="M18.2692 0H18.2091C15.8233 0 13.7139 1.26 12.5 3.12C11.2861 1.26 9.17668 0 6.79087 0H6.73077C3.01082 0.036 0 3.054 0 6.78C0 9 0.973558 12.15 2.8726 14.742C6.49038 19.68 12.5 24 12.5 24C12.5 24 18.5096 19.68 22.1274 14.742C24.0264 12.15 25 9 25 6.78C25 3.054 21.9892 0.036 18.2692 0ZM20.7692 13.752C18.2091 17.25 14.3089 20.478 12.5 21.888C10.6911 20.478 6.79087 17.244 4.23077 13.746C2.46995 11.346 1.68269 8.52 1.68269 6.78C1.68269 5.424 2.21154 4.152 3.16106 3.192C4.11659 2.232 5.38461 1.698 6.74279 1.686H6.79688C7.65625 1.686 8.50961 1.908 9.26683 2.334C10 2.748 10.637 3.336 11.0938 4.044C11.4062 4.518 11.9351 4.806 12.506 4.806C13.0769 4.806 13.6058 4.518 13.9183 4.044C14.381 3.336 15.012 2.748 15.7452 2.334C16.5024 1.908 17.3558 1.686 18.2151 1.686H18.2692C19.6214 1.698 20.8954 2.232 21.851 3.192C22.8065 4.152 23.3293 5.43 23.3293 6.78C23.3173 8.52 22.53 11.346 20.7692 13.752Z" fill="#848587"/>
</svg>
