<svg width="228" height="253" viewBox="0 0 228 253" fill="none" xmlns="http://www.w3.org/2000/svg">
<path d="M164.63 135.707L169.994 245.423C170.175 249.122 166.279 252.235 161.269 252.397L142.688 252.994C137.679 253.154 133.433 250.304 133.175 246.607L125 129L164.633 135.707H164.63Z" fill="#3A6BEA"/>
<path d="M148 130L146.633 133.435L144.003 140.003L100.431 248.979C99.4237 251.483 96.1504 253.152 92.543 252.989L69.2263 251.937C64.4026 251.72 61.0542 248.383 62.2399 245.012L96.3313 148.858L100.81 136.21L134.765 131.745L148 130Z" fill="#3A6BEA"/>
<g opacity="0.8">
<path d="M154.763 137.93C154.85 138.766 163.336 222.007 158.465 252.9L159.495 253C164.379 222.027 155.885 138.704 155.798 137.866L154.765 137.932L154.763 137.93Z" fill="white"/>
<path d="M116.549 137.294C114.861 141.505 75.2201 240.537 77.0623 252.994L78.0923 252.902C76.2757 240.613 117.126 138.564 117.538 137.536L116.549 137.294Z" fill="white"/>
</g>
<path opacity="0.6" d="M164.925 138.59L143.925 144.002L96.4901 156.215L100.946 138.77L134.73 132.611L146.539 134.943L164.925 138.59Z" fill="#1F3C88"/>
<path d="M125.76 207.297C125.696 207.297 125.63 207.289 125.564 207.269C125.165 207.161 124.929 206.751 125.037 206.353L133.329 175.823L145.132 167.445C145.467 167.207 145.935 167.284 146.174 167.622C146.412 167.96 146.334 168.425 145.996 168.664L134.631 176.731L126.48 206.743C126.389 207.075 126.09 207.294 125.76 207.294V207.297Z" fill="#1F3C88"/>
<path d="M130.704 59.058L149.591 96.6363C155.836 91.7677 162.477 88.0622 166.612 85.9519C153.039 59.1189 130.701 59.058 130.701 59.058H130.704Z" fill="#1F3C88"/>
<path d="M198.521 73.3759C198.521 73.3759 200.33 67.1474 198.724 65.5384C197.117 63.9294 191.891 73.7774 191.891 73.7774L172.4 95.2765C170.464 91.8535 168.531 88.7573 166.615 85.9491C162.477 88.0594 155.839 91.7649 149.594 96.6335L160.129 117.595C162.732 122.771 168.54 125.494 174.181 124.178C177.416 123.425 180.218 121.42 181.977 118.603L202.941 85.0268C204.484 80.2108 202.473 76.4915 198.521 73.3731V73.3759Z" fill="#F9B384"/>
<path d="M101.245 121.34C100.29 124.956 99.7941 127.155 99.7941 127.155L100.273 139.083C100.273 139.083 79.9816 139.465 73.9997 132.082C69.9784 127.119 70.4437 118.938 77.3617 103.867C79.1591 99.9541 80.3583 97.2262 82.0476 94.2518C87.5643 94.6396 95.1137 95.5535 102.871 97.5696L92.2474 119.221L101.243 121.34H101.245Z" fill="#F9B384"/>
<path d="M130.704 59.058C130.704 59.058 101.096 57.4351 82.0532 94.2463C88.7802 94.7365 98.4953 95.9772 107.953 99.0707C113.428 83.2129 121.338 65.3446 130.704 59.058Z" fill="#1F3C88"/>
<path d="M164.925 138.59L100.273 139.083C99.8384 131.969 100.766 119.412 101.976 107.362C102.051 106.675 102.112 106.002 102.187 105.316C102.724 100.084 103.309 95.0023 103.846 90.6073C104.009 89.1865 104.175 87.8406 104.325 86.5861C105.117 80.3382 105.685 76.1979 105.685 76.1979L130.709 59.0663C142.474 62.7884 159.395 84.8967 159.395 84.8967L164.925 138.593V138.59Z" fill="#1F3C88"/>
<path d="M201.269 66.3112L192.861 84.8303L194.985 85.8965L204.825 68.0974L201.269 66.3112Z" fill="#1F3C88"/>
<path d="M207.065 64.0429L203.185 62.0933C203.127 63.0321 202.911 63.8823 202.537 64.6411L205.445 66.1034C205.83 65.3612 206.37 64.6771 207.065 64.0457V64.0429Z" fill="#102048"/>
<path d="M202.537 64.6412C202.23 65.2644 201.814 65.8265 201.269 66.314L204.825 68.1002C204.908 67.3913 205.121 66.7266 205.445 66.1035L202.537 64.6412Z" fill="#1F3C88"/>
<path d="M214.853 64.3866C221.589 62.033 225.142 54.6646 222.788 47.9287C220.435 41.1929 213.066 37.6404 206.33 39.994C199.595 42.3476 196.042 49.716 198.396 56.4518C200.749 63.1876 208.118 66.7401 214.853 64.3866Z" fill="#1F3C88"/>
<path d="M218.199 58.8629C221.867 54.6679 221.439 48.2942 217.244 44.6269C213.049 40.9596 206.675 41.3875 203.008 45.5825C199.34 49.7775 199.768 56.1512 203.963 59.8184C208.158 63.4857 214.532 63.0579 218.199 58.8629Z" fill="#E5ECFF"/>
<path d="M216.326 56.4382C216.237 56.4382 216.143 56.4215 216.055 56.3883C215.67 56.2387 215.479 55.8067 215.628 55.4218C216.993 51.9101 216.138 48.5037 213.545 47.1357C213.18 46.9418 213.041 46.4904 213.233 46.1248C213.426 45.7592 213.878 45.6208 214.243 45.8119C217.528 47.5455 218.669 51.719 217.021 55.9618C216.908 56.2581 216.625 56.4382 216.323 56.4382H216.326Z" fill="white"/>
<path d="M203.57 77.0094C202.116 78.1227 200.382 78.6794 199.621 77.8513C198.884 77.051 200.263 74.7773 200.729 74.1209C201.385 73.1932 204.246 70.5262 205.442 72.0245C206.655 73.5393 205.315 75.6773 203.57 77.0122V77.0094Z" fill="#E28B6D"/>
<path d="M204.744 80.726C203.29 81.8393 201.557 82.3959 200.795 81.5679C200.058 80.7675 201.438 78.4938 201.903 77.8375C202.559 76.9097 205.42 74.2427 206.616 75.741C207.829 77.2559 206.489 79.3939 204.744 80.7287V80.726Z" fill="#E28B6D"/>
<path d="M205.088 84.6253C203.789 85.6195 202.241 86.1181 201.559 85.3758C200.903 84.6613 202.135 82.6286 202.548 82.0442C203.132 81.2162 205.691 78.8317 206.76 80.1693C207.843 81.5236 206.647 83.4317 205.088 84.6253Z" fill="#E28B6D"/>
<path d="M94.0891 138.906C94.0891 138.906 110.354 140.543 110.647 138.812C110.941 137.081 107.094 136.211 107.094 136.211C107.094 136.211 115.128 136.558 114.882 135.095C114.635 133.63 111.165 132.625 111.165 132.625C111.165 132.625 116.801 132.78 116.214 131.154C115.627 129.529 110.891 128.343 110.891 128.343C110.891 128.343 118.38 126.981 115.527 125.541C112.677 124.098 97.1244 120.534 97.1244 120.534L94.0863 138.909L94.0891 138.906Z" fill="#F9B384"/>
<path d="M100.846 122.026C100.788 122.026 100.727 122.018 100.666 122.004L85.7808 118.329C85.3792 118.23 85.1355 117.825 85.2352 117.424C85.3349 117.022 85.7392 116.776 86.1408 116.878L101.026 120.553C101.428 120.653 101.672 121.057 101.572 121.459C101.489 121.799 101.182 122.026 100.846 122.026Z" fill="#E28B6D"/>
<path d="M167.617 100.973C167.437 100.973 167.254 100.907 167.11 100.777C166.806 100.497 166.786 100.023 167.066 99.7215L180.146 85.5199C180.426 85.2153 180.899 85.1959 181.201 85.4756C181.506 85.7553 181.525 86.2289 181.246 86.5307L168.166 100.732C168.019 100.893 167.817 100.973 167.614 100.973H167.617Z" fill="#E28B6D"/>
<path d="M128.74 76.4278C124.198 76.4278 121.005 73.5421 120.955 73.4922C120.653 73.2125 120.634 72.739 120.916 72.4371C121.196 72.1352 121.67 72.1159 121.972 72.3956C122.271 72.6725 129.396 79.0505 137.361 70.565C137.644 70.2631 138.117 70.2492 138.419 70.5317C138.721 70.8142 138.735 71.2878 138.452 71.5897C134.98 75.2896 131.593 76.4278 128.74 76.4278Z" fill="#3A6BEA"/>
<path d="M103.068 97.204C102.771 99.8156 102.472 102.541 102.187 105.316C102.112 106.003 102.051 106.675 101.976 107.362C107.238 100.27 107.083 91.2581 107.075 90.9064C104.915 93.8697 103.541 96.3123 103.068 97.2013V97.204Z" fill="#102048"/>
<path d="M137.68 42.3833V61.196C137.68 65.6603 134.079 69.2606 129.635 69.2606C125.19 69.2606 121.57 65.6603 121.57 61.196V42.3833H137.683H137.68Z" fill="#F9B384"/>
<path d="M137.68 47.4541V60.2765C130.349 56.5655 127.355 49.8607 127.355 49.8607L137.68 47.4541Z" fill="#102048"/>
<path d="M142.393 29.9929C142.393 29.9929 148.937 60.3043 127.353 49.8553L119.889 39.6361L124.827 24.7089L136.079 24.0193L142.393 29.9902V29.9929Z" fill="#F9B384"/>
<path d="M142.393 29.9929C142.393 29.9929 127.123 17.7078 121.612 39.1791L116.79 38.2597C116.79 38.2597 112.713 21.801 127.353 18.7407C139.984 16.0987 142.393 29.9929 142.393 29.9929Z" fill="#102048"/>
<path d="M123.323 43.4719C124.841 41.9534 124.6 39.2504 122.784 37.4345C120.968 35.6186 118.265 35.3775 116.747 36.896C115.228 38.4144 115.469 41.1174 117.285 42.9333C119.101 44.7492 121.804 44.9903 123.323 43.4719Z" fill="#F9B384"/>
<path d="M121.744 41.738C121.609 41.738 121.479 41.6632 121.412 41.5358C121.401 41.5137 120.191 39.1985 118.28 39.4006C118.072 39.42 117.889 39.2732 117.87 39.0683C117.848 38.8633 117.997 38.6778 118.202 38.6584C120.626 38.4009 122.021 41.0817 122.08 41.1952C122.174 41.378 122.099 41.6023 121.916 41.6965C121.861 41.7242 121.803 41.738 121.747 41.738H121.744Z" fill="#102048"/>
<path d="M140.808 38.2058C141.345 37.9833 141.6 37.3677 141.378 36.8308C141.156 36.2938 140.54 36.0388 140.003 36.2612C139.466 36.4836 139.211 37.0992 139.433 37.6362C139.656 38.1732 140.271 38.4282 140.808 38.2058Z" fill="#102048"/>
<path d="M133.772 38.376C134.353 38.376 134.824 37.9048 134.824 37.3236C134.824 36.7424 134.353 36.2712 133.772 36.2712C133.191 36.2712 132.72 36.7424 132.72 37.3236C132.72 37.9048 133.191 38.376 133.772 38.376Z" fill="#102048"/>
<path d="M138.533 43.361C138.256 43.361 137.937 43.325 137.652 43.2003C137.464 43.1173 137.375 42.8985 137.458 42.7102C137.538 42.5218 137.76 42.4332 137.948 42.5163C138.181 42.616 138.541 42.6409 138.934 42.5855C139.208 42.544 139.427 42.4277 139.541 42.2643C139.627 42.1369 139.652 42.004 139.618 41.8461C139.502 41.3061 138.732 40.622 138.067 40.2149C137.89 40.1069 137.838 39.877 137.943 39.6998C138.051 39.5226 138.281 39.4672 138.458 39.5752C138.735 39.7441 140.125 40.6414 140.349 41.6882C140.427 42.0455 140.36 42.3889 140.158 42.6852C139.926 43.0259 139.53 43.2557 139.042 43.3277C138.912 43.3471 138.732 43.3665 138.533 43.3665V43.361Z" fill="#102048"/>
<path d="M136.663 46.5015C134.509 46.5015 133.082 44.7318 133.066 44.7097C132.938 44.549 132.966 44.3136 133.127 44.1835C133.287 44.0561 133.523 44.0838 133.65 44.2444C133.722 44.3358 135.395 46.3879 137.782 45.5571C137.976 45.4879 138.189 45.5931 138.259 45.787C138.328 45.9808 138.223 46.1941 138.029 46.2633C137.55 46.4322 137.093 46.5015 136.663 46.5015Z" fill="#102048"/>
<path d="M135.783 34.1914C135.545 34.8256 134.861 34.6871 133.293 34.964C132.933 35.0277 131.042 35.4819 130.945 35.0914C130.875 34.8145 131.781 34.0806 133.047 33.7649C133.744 33.5904 134.387 33.5433 135.077 33.5904C135.245 33.6015 135.417 33.6236 135.558 33.6873C135.797 33.7926 135.869 33.9698 135.786 34.1914H135.783Z" fill="#102048"/>
<path d="M138.702 34.1526C138.904 34.7868 139.521 34.6483 140.928 34.9225C141.25 34.9862 142.947 35.4404 143.041 35.0471C143.108 34.7702 142.307 34.0391 141.175 33.7233C140.549 33.5489 139.973 33.5046 139.352 33.5516C139.2 33.5627 139.045 33.5849 138.915 33.6486C138.699 33.7538 138.63 33.931 138.702 34.1526Z" fill="#102048"/>
<path d="M32.3258 0.651245C49.8202 0.651245 64.0027 14.8337 64.0027 32.3281C64.0027 37.9064 62.5486 43.141 60.0178 47.693L66.656 63.8487L51.0892 57.8089C45.8329 61.6856 39.3582 64.0049 32.3258 64.0049C14.8315 64.0049 0.648987 49.8224 0.648987 32.3281C0.648987 14.8337 14.8315 0.651245 32.3258 0.651245Z" fill="white"/>
<path d="M67.8312 65L51.1852 58.5397C45.6406 62.5389 39.1274 64.6515 32.3258 64.6515C14.5021 64.6515 0 50.1494 0 32.3258C0 14.5021 14.5021 0 32.3258 0C50.1494 0 64.6515 14.5021 64.6515 32.3258C64.6515 37.695 63.2984 43.0161 60.7364 47.7316L67.8312 64.9976V65ZM32.3258 1.30025C15.2159 1.30025 1.29784 15.2183 1.29784 32.3282C1.29784 49.438 15.2159 63.3561 32.3258 63.3561C38.9664 63.3561 45.3209 61.2579 50.7046 57.2851L50.9906 57.0736L65.4807 62.6975L59.2967 47.6522L59.4481 47.3783C62.0029 42.7854 63.3513 37.582 63.3513 32.3282C63.3513 15.2183 49.4332 1.30025 32.3233 1.30025H32.3258Z" fill="#86A7FF"/>
<path d="M28.1318 43.9895C28.1318 41.7664 29.8766 40.108 32.3209 40.108C34.7652 40.108 36.51 41.7664 36.51 43.9895C36.51 46.2127 34.7652 47.9599 32.3209 47.9599C29.8766 47.9599 28.1318 46.1694 28.1318 43.9895Z" fill="#86A7FF"/>
<path d="M28.2615 17.0714H36.3754L35.0223 37.01H29.6147L28.2615 17.0714Z" fill="#86A7FF"/>
</svg>
