<svg width="987" height="322" viewBox="0 0 987 322" fill="none" xmlns="http://www.w3.org/2000/svg">
<path d="M152.49 22.23H64.6898C55.6598 22.23 48.3398 29.55 48.3398 38.58C48.3398 47.61 55.6598 54.93 64.6898 54.93H137.05L147 64V54.93H152.49C161.52 54.93 168.84 47.61 168.84 38.58C168.84 29.55 161.52 22.23 152.49 22.23Z" fill="#4E69FF"/>
<path d="M72.6099 36.33C73.7499 35.38 74.4799 33.95 74.4799 32.34C74.4799 29.48 72.1599 27.16 69.2999 27.16C66.4399 27.16 64.1199 29.48 64.1199 32.34C64.1199 33.94 64.8499 35.38 65.9899 36.33C62.3099 37.68 59.6899 41.2 59.6899 45.35C59.6899 50.66 78.9199 50.66 78.9199 45.35C78.9199 41.21 76.2899 37.68 72.6199 36.33H72.6099Z" fill="#FFB54A"/>
<path d="M153.59 31.02H90.6802C90.4002 31.02 90.1802 30.8 90.1802 30.52C90.1802 30.24 90.4002 30.02 90.6802 30.02H153.59C153.87 30.02 154.09 30.24 154.09 30.52C154.09 30.8 153.87 31.02 153.59 31.02Z" fill="white"/>
<path d="M143.83 45.78H90.6802C90.4002 45.78 90.1802 45.56 90.1802 45.28C90.1802 45 90.4002 44.78 90.6802 44.78H143.83C144.11 44.78 144.33 45 144.33 45.28C144.33 45.56 144.11 45.78 143.83 45.78Z" fill="white"/>
<path d="M129.36 38.87H90.6802C90.4002 38.87 90.1802 38.65 90.1802 38.37C90.1802 38.09 90.4002 37.87 90.6802 37.87H129.36C129.64 37.87 129.86 38.09 129.86 38.37C129.86 38.65 129.64 38.87 129.36 38.87Z" fill="white"/>
<path d="M153.59 38.87H134.18C133.9 38.87 133.68 38.65 133.68 38.37C133.68 38.09 133.9 37.87 134.18 37.87H153.59C153.87 37.87 154.09 38.09 154.09 38.37C154.09 38.65 153.87 38.87 153.59 38.87Z" fill="white"/>
<path d="M75.5201 43.85C75.1401 43.85 74.7501 43.7 74.4601 43.41L70.6901 39.64C70.1001 39.05 70.1001 38.1 70.6901 37.52C71.2801 36.93 72.2301 36.93 72.8101 37.52L75.5201 40.23L82.7901 32.96C83.3801 32.37 84.3301 32.37 84.9101 32.96C85.5001 33.55 85.5001 34.5 84.9101 35.08L76.5801 43.42C76.2901 43.71 75.9001 43.86 75.5201 43.86V43.85Z" fill="white"/>
<path d="M879.78 0H969.86C979.12 0 986.64 7.51001 986.64 16.78C986.64 26.05 979.13 33.56 969.86 33.56H895.62L885.41 42.87V33.56H879.78C870.52 33.56 863 26.05 863 16.78C863 7.51001 870.51 0 879.78 0Z" fill="#FFB54A"/>
<path d="M967.85 14.31C968.99 13.36 969.72 11.93 969.72 10.32C969.72 7.46 967.4 5.14 964.54 5.14C961.68 5.14 959.36 7.46 959.36 10.32C959.36 11.92 960.09 13.36 961.23 14.31C957.55 15.66 954.93 19.18 954.93 23.33C954.93 28.64 974.16 28.64 974.16 23.33C974.16 19.19 971.53 15.66 967.86 14.31H967.85Z" fill="#4E69FF"/>
<path d="M975.74 17.19H973.26V14.71C973.26 14.44 973.04 14.22 972.77 14.22H970.5C970.23 14.22 970.01 14.44 970.01 14.71V17.19H967.53C967.26 17.19 967.04 17.41 967.04 17.68V19.95C967.04 20.22 967.26 20.44 967.53 20.44H970.01V22.92C970.01 23.19 970.23 23.41 970.5 23.41H972.77C973.04 23.41 973.26 23.19 973.26 22.92V20.44H975.74C976.01 20.44 976.23 20.22 976.23 19.95V17.68C976.23 17.41 976.01 17.19 975.74 17.19Z" fill="white"/>
<path d="M947.06 10H884.15C883.87 10 883.65 9.78 883.65 9.5C883.65 9.22 883.87 9 884.15 9H947.06C947.34 9 947.56 9.22 947.56 9.5C947.56 9.78 947.34 10 947.06 10Z" fill="white"/>
<path d="M937.3 24.77H884.15C883.87 24.77 883.65 24.55 883.65 24.27C883.65 23.99 883.87 23.77 884.15 23.77H937.3C937.58 23.77 937.8 23.99 937.8 24.27C937.8 24.55 937.58 24.77 937.3 24.77Z" fill="white"/>
<path d="M922.83 17.85H884.15C883.87 17.85 883.65 17.63 883.65 17.35C883.65 17.07 883.87 16.85 884.15 16.85H922.83C923.11 16.85 923.33 17.07 923.33 17.35C923.33 17.63 923.11 17.85 922.83 17.85Z" fill="white"/>
<path d="M947.06 17.85H927.65C927.37 17.85 927.15 17.63 927.15 17.35C927.15 17.07 927.37 16.85 927.65 16.85H947.06C947.34 16.85 947.56 17.07 947.56 17.35C947.56 17.63 947.34 17.85 947.06 17.85Z" fill="white"/>
<path d="M10.28 174.5H65.46C71.13 174.5 75.74 179.1 75.74 184.78C75.74 190.46 71.14 195.06 65.46 195.06H10.28C4.61 195.06 0 190.46 0 184.78C0 179.1 4.6 174.5 10.28 174.5Z" fill="#FFB54A"/>
<path d="M59.2199 181.46H16.4399C16.1599 181.46 15.9399 181.24 15.9399 180.96C15.9399 180.68 16.1599 180.46 16.4399 180.46H59.2199C59.4999 180.46 59.7199 180.68 59.7199 180.96C59.7199 181.24 59.4999 181.46 59.2199 181.46Z" fill="white"/>
<path d="M52.5899 189.23H16.4399C16.1599 189.23 15.9399 189.01 15.9399 188.73C15.9399 188.45 16.1599 188.23 16.4399 188.23H52.5899C52.8699 188.23 53.0899 188.45 53.0899 188.73C53.0899 189.01 52.8699 189.23 52.5899 189.23Z" fill="white"/>
<path d="M42.7399 185.59H16.4399C16.1599 185.59 15.9399 185.37 15.9399 185.09C15.9399 184.81 16.1599 184.59 16.4399 184.59H42.7399C43.0199 184.59 43.2399 184.81 43.2399 185.09C43.2399 185.37 43.0199 185.59 42.7399 185.59Z" fill="white"/>
<path d="M59.22 185.59H46.02C45.74 185.59 45.52 185.37 45.52 185.09C45.52 184.81 45.74 184.59 46.02 184.59H59.22C59.5 184.59 59.72 184.81 59.72 185.09C59.72 185.37 59.5 185.59 59.22 185.59Z" fill="white"/>
<path d="M769.181 173.65L769.211 173.54L783.691 123.17L783.631 123.12C784.281 121.85 785.971 119.11 789.421 116.7C795.391 112.54 796.101 105.64 796.101 105.64C799.291 102.56 802.881 99.92 806.131 96.91C806.471 96.6 806.821 96.25 806.921 95.8C807.031 95.3 806.801 94.78 806.511 94.35C804.831 91.86 801.741 91.5 799.181 92.65C797.681 93.32 796.331 94.28 795.071 95.33C794.471 95.83 792.431 97.2 791.811 98.12L803.331 73.53C804.351 71.35 803.681 68.85 801.841 67.99C800.921 67.56 799.871 67.61 798.931 68.05C798.331 68.33 797.791 68.77 797.331 69.33L797.391 69.04C783.901 57.7 767.261 96.3 767.261 96.3L762.541 107.45L722.481 181.73C716.821 192.51 721.181 205.83 732.131 211.17C732.291 211.25 732.451 211.31 732.611 211.39C735.821 213.24 739.551 214.31 743.521 214.31H822.361L839.351 173.93L769.191 173.65H769.181Z" fill="#FEC29E"/>
<path opacity="0.17" d="M755.682 214.29C753.122 214.21 754.672 214.26 755.682 214.29V214.29Z" fill="#FF887C"/>
<path opacity="0.17" d="M755.691 214.29L756.341 214.31C756.101 214.31 755.891 214.3 755.691 214.29Z" fill="#FF887C"/>
<path opacity="0.17" d="M769.212 173.53L766.922 181.51C766.322 183.72 765.642 186.1 764.902 188.53L762.132 198.17C761.752 199.41 761.262 200.58 760.692 201.69C758.302 208.83 756.342 214.3 756.342 214.3L784.692 173.7C777.642 173.7 776.022 173.53 769.212 173.52V173.53Z" fill="#FF887C"/>
<path d="M780.631 100.64C780.531 100.64 780.421 100.61 780.331 100.54C780.111 100.38 780.061 100.06 780.221 99.84C785.251 93.02 792.021 96.7 792.081 96.74C792.321 96.88 792.411 97.18 792.271 97.42C792.141 97.66 791.831 97.75 791.591 97.61C791.341 97.47 785.521 94.33 781.021 100.43C780.921 100.56 780.771 100.63 780.621 100.63L780.631 100.64Z" fill="#FB8E77"/>
<path d="M797.621 69.24C795.541 71.86 793.611 74.61 791.891 77.48C791.041 78.91 790.261 80.39 789.621 81.91C788.981 83.42 788.471 85.04 788.551 86.56V86.59C788.571 86.87 788.361 87.1 788.081 87.12C787.801 87.14 787.571 86.92 787.551 86.65C787.501 84.78 788.111 83.12 788.791 81.56C789.491 80 790.311 78.51 791.211 77.07C793.011 74.2 795.001 71.47 797.161 68.87C797.261 68.74 797.451 68.73 797.581 68.83C797.711 68.93 797.721 69.12 797.621 69.24Z" fill="#FB8E77"/>
<path d="M794.141 67.81C792.821 68.72 791.641 69.92 790.581 71.17C789.521 72.43 788.591 73.8 787.751 75.22C786.931 76.65 786.201 78.14 785.591 79.67C785.261 80.43 785.021 81.22 784.731 81.99L784.011 84.36V84.39C783.921 84.65 783.641 84.8 783.381 84.72C783.121 84.64 782.971 84.36 783.051 84.1L783.831 81.68C784.141 80.89 784.411 80.09 784.751 79.32C785.411 77.76 786.181 76.25 787.051 74.8C787.941 73.36 788.921 71.97 790.031 70.69C791.161 69.42 792.361 68.23 793.811 67.26C793.951 67.17 794.151 67.2 794.241 67.35C794.331 67.49 794.301 67.68 794.161 67.78L794.141 67.8V67.81Z" fill="#FB8E77"/>
<path d="M788.692 68.19C786.782 70.19 784.992 72.36 783.452 74.66C782.692 75.82 781.962 77 781.392 78.24C780.812 79.48 780.342 80.77 780.132 82.08C780.092 82.36 779.832 82.55 779.562 82.51C779.292 82.47 779.102 82.21 779.142 81.94C779.412 80.47 779.952 79.13 780.582 77.85C781.212 76.57 781.992 75.38 782.802 74.21C784.432 71.9 786.282 69.77 788.282 67.77C788.392 67.66 788.582 67.66 788.692 67.77C788.802 67.88 788.802 68.06 788.692 68.18V68.19Z" fill="#FB8E77"/>
<path d="M951.142 246.98L931.802 194.26C929.502 182.69 918.492 173.92 905.252 173.92L851.232 173.49L790.372 173.72V214.29H809.262L799.512 320.12L933.532 320.88L932.782 249.22L951.142 246.97V246.98Z" fill="#4E69FF"/>
<path opacity="0.05" d="M851.131 173.95L851.241 173.5L790.381 173.73V214.3H809.271L809.371 213.23C809.371 191.82 827.991 174.42 851.141 173.95H851.131Z" fill="#1B1B25"/>
<path opacity="0.18" d="M774.211 115.24C774.211 115.24 777.631 144.25 777.831 143.56C778.031 142.86 783.691 123.17 783.691 123.17L774.211 115.24Z" fill="#FF887C"/>
<path d="M853.991 262.13L848.881 236.35L844.931 216.46C844.471 214.12 842.171 212.59 839.831 213.05L820.071 216.97C817.731 217.43 816.201 219.73 816.661 222.07L820.631 242.09L823.781 257.97L825.721 267.74C826.181 270.08 828.481 271.61 830.821 271.15L842.491 268.83L850.581 267.23C852.921 266.77 854.451 264.47 853.991 262.13Z" fill="#1B1B25"/>
<path d="M959.151 285.89L950.241 247.1L909.741 252.06L911.961 261.93L911.751 261.88L867.721 250.98L867.681 251.03C866.471 250.42 864.181 248.97 862.171 245.97C858.481 240.45 852.281 240.3 852.281 240.3C851.091 239.05 849.971 237.71 848.871 236.36L849.901 241.56L849.641 241.7C846.841 243.18 843.681 243.84 840.521 243.59C834.681 243.13 825.131 242.39 821.161 242.08C819.951 241.99 818.791 242.63 818.261 243.73C812.591 255.64 836.921 266.54 842.481 268.84C842.551 268.87 842.611 268.89 842.681 268.92C842.761 268.95 842.841 268.98 842.911 269.01C842.991 269.04 843.051 269.07 843.121 269.1C843.181 269.13 843.251 269.15 843.301 269.17C843.371 269.2 843.421 269.22 843.471 269.24L843.531 269.27L843.611 269.3L853.131 272.87L928.511 309.98C929.211 310.32 929.921 310.61 930.631 310.86C934.291 312.53 938.491 313.08 942.711 312.11C954.481 309.41 961.831 297.67 959.131 285.91L959.151 285.89Z" fill="#FEC29E"/>
<path opacity="0.17" d="M956.271 273.38L909.731 252.05C911.281 258.82 910.381 255.83 911.751 261.87L914.921 262.65C928.321 263.55 956.281 273.38 956.281 273.38H956.271Z" fill="#FF887C"/>
<path opacity="0.35" d="M905.971 252.55C905.741 252.55 905.531 252.39 905.481 252.15L899.661 223.98C899.601 223.71 899.781 223.44 900.051 223.39C900.311 223.33 900.591 223.51 900.641 223.78L906.361 251.49L925.941 249C926.211 248.96 926.461 249.16 926.501 249.43C926.541 249.7 926.341 249.95 926.071 249.99L906.031 252.54C906.031 252.54 905.991 252.54 905.971 252.54V252.55Z" fill="#1B1B25"/>
<path opacity="0.17" d="M956.592 274.98L956.672 275.38L956.592 274.98Z" fill="#FF887C"/>
<path opacity="0.17" d="M956.271 273.38C956.271 273.38 956.382 273.92 956.482 274.45C956.422 274.17 956.361 273.83 956.271 273.38Z" fill="#FF887C"/>
<path opacity="0.17" d="M956.481 274.45L956.591 274.98C956.561 274.82 956.521 274.64 956.481 274.45Z" fill="#FF887C"/>
<path d="M901.381 69.49C900.151 61 892.401 54.96 883.811 55.93C881.531 56.19 879.421 56.92 877.561 58.01C874.801 53.49 869.591 50.72 863.981 51.35C860.771 51.71 857.951 53.14 855.801 55.22C852.701 53.67 849.141 52.95 845.441 53.37C835.271 54.52 827.961 63.7 829.111 73.86C829.651 78.62 831.951 82.74 835.281 85.67L831.511 105.79C830.431 111.57 834.231 117.12 840.011 118.2L884.631 126.55C890.411 127.63 895.961 123.83 897.041 118.05L904.351 79C905.021 75.4 903.801 71.88 901.371 69.48L901.381 69.49Z" fill="#1B1B25"/>
<path d="M836.351 80.49C836.181 80.49 836.021 80.41 835.931 80.26C827.961 67.65 838.941 59.56 839.051 59.48C839.271 59.32 839.591 59.37 839.751 59.59C839.911 59.81 839.861 60.13 839.641 60.29C839.221 60.6 829.321 67.92 836.781 79.73C836.931 79.96 836.861 80.27 836.621 80.42C836.541 80.47 836.441 80.5 836.351 80.5V80.49Z" fill="#FCF0E3"/>
<path d="M894.171 108.93L893.191 108.75L883.341 87.58C880.921 87.23 878.641 86.34 876.681 85C874.791 87.05 872.191 88.46 869.211 88.79C865.621 89.2 862.221 87.97 859.751 85.71C857.001 88.12 853.531 89.76 849.621 90.2C845.151 90.71 840.871 89.57 837.391 87.29L830.531 123.94C829.581 129 830.621 133.97 833.071 138.07C835.511 144.1 840.751 148.84 847.501 150.39V174.6C847.501 183.01 854.381 189.89 862.791 189.89H867.611C876.021 189.89 882.901 183.01 882.901 174.6V147.12C885.381 144.4 887.171 140.99 887.901 137.1L889.151 130.41L890.131 130.59C895.921 131.67 901.551 127.82 902.631 122.03L902.741 121.44C903.821 115.65 899.971 110.02 894.181 108.94L894.171 108.93Z" fill="#FEC29E"/>
<path opacity="0.32" d="M886.872 129.55L885.982 134.32C883.922 145.34 873.322 152.59 862.302 150.53L846.732 147.61C840.782 146.5 835.942 142.88 833.062 138.06C835.602 144.34 841.172 149.24 848.322 150.58L848.942 150.7C851.412 155.83 856.662 159.4 862.702 159.4H867.582C874.792 159.4 880.872 154.33 882.452 147.58C885.162 144.78 887.102 141.2 887.872 137.09L889.122 130.4L886.852 129.55H886.872Z" fill="#FF887C"/>
<path d="M895.022 123.29C894.912 123.29 894.802 123.26 894.712 123.18L890.822 120.16C890.702 120.07 890.632 119.93 890.632 119.79C890.632 119.64 890.682 119.5 890.792 119.4L895.592 114.87C895.792 114.68 896.112 114.69 896.302 114.89C896.492 115.09 896.482 115.41 896.282 115.6L891.912 119.73L895.342 122.39C895.562 122.56 895.602 122.87 895.432 123.09C895.332 123.22 895.182 123.28 895.042 123.28L895.022 123.29Z" fill="#FB8E77"/>
<path d="M870.282 104.68C869.532 104.66 868.762 104.2 867.982 103.81C867.212 103.39 866.432 103 865.732 102.67C865.042 102.35 864.232 102 863.412 101.68C862.612 101.34 861.762 101.04 861.272 100.48C860.792 99.95 860.892 99.12 862.002 98.56C863.062 98.01 865.232 97.87 867.532 98.94C869.822 100.01 871.092 101.75 871.322 102.91C871.582 104.11 870.982 104.71 870.262 104.68H870.282Z" fill="#1B1B25"/>
<path d="M838.462 101.94C839.112 102.3 840.002 102.35 840.872 102.44C841.742 102.52 842.612 102.61 843.372 102.72C844.132 102.83 845.002 102.97 845.852 103.14C846.712 103.29 847.582 103.49 848.292 103.32C848.972 103.17 849.332 102.5 848.682 101.54C848.072 100.6 846.302 99.43 843.792 99.07C841.282 98.72 839.302 99.37 838.492 100.11C837.632 100.87 837.832 101.61 838.452 101.94H838.462Z" fill="#1B1B25"/>
<path d="M862.942 113.228L863.001 113.239C863.674 113.365 864.322 112.921 864.448 112.248L864.744 110.666C864.871 109.993 864.427 109.345 863.754 109.219L863.695 109.208C863.022 109.081 862.374 109.525 862.248 110.198L861.951 111.781C861.825 112.454 862.269 113.102 862.942 113.228Z" fill="#1B1B25"/>
<path d="M841.37 109.736L841.429 109.747C842.102 109.873 842.75 109.429 842.876 108.756L843.172 107.174C843.298 106.501 842.855 105.853 842.182 105.727L842.123 105.716C841.45 105.589 840.802 106.033 840.676 106.706L840.379 108.289C840.253 108.962 840.697 109.61 841.37 109.736Z" fill="#1B1B25"/>
<path opacity="0.17" d="M868.252 119.435L863.83 118.938C862.985 118.843 862.387 118.081 862.481 117.246L862.491 117.157C862.586 116.312 863.347 115.714 864.182 115.808L868.604 116.305C869.449 116.4 870.048 117.162 869.954 117.997L869.944 118.086C869.848 118.931 869.087 119.529 868.252 119.435Z" fill="#FF887C"/>
<path opacity="0.17" d="M839.065 114.841L834.642 114.343C833.798 114.248 833.199 113.486 833.293 112.651L833.303 112.562C833.398 111.717 834.16 111.119 834.995 111.213L839.417 111.71C840.261 111.805 840.86 112.567 840.766 113.402L840.757 113.481C840.662 114.326 839.9 114.924 839.066 114.831L839.065 114.841Z" fill="#FF887C"/>
<path d="M847.532 137C847.382 137 847.222 136.93 847.132 136.79C846.972 136.57 847.022 136.25 847.242 136.09C849.342 134.56 851.682 135.42 852.632 136.09C852.862 136.25 852.912 136.56 852.752 136.78C852.592 137.01 852.282 137.06 852.052 136.9C851.962 136.84 849.852 135.41 847.822 136.9C847.732 136.96 847.632 137 847.532 137Z" fill="#FB8E77"/>
<path d="M850.911 122.79L862.601 121.12L861.321 125.18C860.501 127.78 858.091 129.55 855.361 129.55C853.241 129.55 851.461 127.95 851.231 125.84L850.901 122.79H850.911Z" fill="white"/>
<path d="M853.932 118.64C853.932 118.64 853.852 118.64 853.802 118.62L850.172 117.68C848.632 117.28 847.392 116.21 846.772 114.75C846.152 113.29 846.232 111.65 847.002 110.27L852.522 100.33C852.662 100.09 852.962 100 853.202 100.14C853.442 100.27 853.532 100.58 853.392 100.82L847.872 110.76C847.252 111.88 847.182 113.19 847.692 114.37C848.192 115.54 849.192 116.4 850.432 116.72L854.062 117.66C854.332 117.73 854.492 118 854.422 118.27C854.362 118.5 854.162 118.64 853.942 118.64H853.932Z" fill="#FB8E77"/>
<path d="M296.06 190.54L256 116.26L251.28 105.11C251.28 105.11 234.64 66.5 221.15 77.85L221.21 78.14C220.75 77.58 220.21 77.14 219.61 76.86C218.67 76.42 217.62 76.37 216.7 76.8C214.86 77.66 214.19 80.15 215.21 82.34L226.73 106.93C226.11 106.02 224.07 104.64 223.47 104.14C222.21 103.09 220.87 102.13 219.36 101.46C216.79 100.31 213.71 100.67 212.03 103.16C211.74 103.59 211.51 104.1 211.62 104.61C211.72 105.06 212.07 105.41 212.41 105.72C215.66 108.73 219.26 111.37 222.44 114.45C222.44 114.45 223.15 121.35 229.12 125.51C232.57 127.92 234.26 130.65 234.91 131.93L234.85 131.98L249.36 182.46L228.17 182.74V223.12H275.04C279.02 223.12 282.75 222.05 285.96 220.19C286.11 220.12 286.27 220.05 286.42 219.98C297.36 214.64 301.73 201.32 296.07 190.54H296.06Z" fill="#FEC29E"/>
<path opacity="0.17" d="M262.2 223.11C266.85 222.97 262.2 223.11 262.2 223.11C262.2 223.11 251.31 193.81 249.44 182.33C242.22 182.33 241.13 182.65 233.91 182.65L262.2 223.1V223.11Z" fill="#FF887C"/>
<path d="M237.91 109.44C237.76 109.44 237.61 109.37 237.51 109.24C233.01 103.14 227.19 106.28 226.94 106.42C226.7 106.55 226.4 106.47 226.26 106.23C226.13 105.99 226.21 105.69 226.45 105.55C226.52 105.51 233.28 101.83 238.31 108.65C238.47 108.87 238.43 109.19 238.2 109.35C238.11 109.42 238.01 109.45 237.9 109.45L237.91 109.44Z" fill="#FB8E77"/>
<path d="M221.36 77.64C222.57 78.85 223.68 80.14 224.73 81.48C225.77 82.82 226.75 84.22 227.63 85.69C228.49 87.17 229.26 88.7 229.87 90.31C230.45 91.93 230.86 93.63 230.99 95.38C231.01 95.66 230.81 95.9 230.53 95.92C230.25 95.94 230.01 95.74 229.99 95.46V95.43C229.89 93.8 229.54 92.19 229.02 90.62C228.46 89.06 227.75 87.55 226.94 86.09C226.11 84.64 225.18 83.25 224.18 81.9C223.17 80.56 222.1 79.26 220.95 78.06C220.84 77.93 220.84 77.75 220.95 77.63C221.07 77.52 221.25 77.52 221.37 77.63L221.36 77.64Z" fill="#FB8E77"/>
<path d="M224.74 75.72C226.37 76.56 227.57 77.82 228.68 79.14C229.78 80.47 230.73 81.92 231.55 83.42C232.4 84.92 233.1 86.48 233.77 88.06L234.68 90.46L235.49 92.9C235.58 93.16 235.43 93.45 235.17 93.53C234.91 93.62 234.62 93.47 234.54 93.21V93.18L233.78 90.77L232.93 88.39C232.3 86.83 231.65 85.28 230.84 83.8C230.07 82.31 229.16 80.89 228.12 79.58C227.09 78.29 225.88 77.03 224.49 76.28L224.44 76.25C224.29 76.17 224.23 75.98 224.32 75.83C224.4 75.68 224.58 75.63 224.73 75.7L224.74 75.72Z" fill="#FB8E77"/>
<path d="M230.23 76.56C231.35 77.47 232.35 78.47 233.28 79.54C234.22 80.61 235.08 81.74 235.85 82.93C236.63 84.12 237.33 85.36 237.91 86.67C238.52 87.96 238.97 89.32 239.39 90.69C239.47 90.95 239.32 91.23 239.06 91.31C238.8 91.39 238.52 91.24 238.44 90.97V90.94C238.07 89.62 237.67 88.29 237.11 87.03C236.58 85.76 235.93 84.53 235.2 83.36C234.48 82.18 233.67 81.05 232.78 79.99C231.9 78.93 230.93 77.91 229.89 77.03H229.88C229.76 76.92 229.74 76.73 229.85 76.61C229.95 76.49 230.13 76.47 230.25 76.57L230.23 76.56Z" fill="#FB8E77"/>
<path opacity="0.18" d="M233.04 129.12L248.52 127.21L238.95 146.25C238.95 146.25 236.1 132.09 233.04 129.12Z" fill="#FF887C"/>
<path d="M170.83 182.74V182.76C170.59 182.76 170.36 182.74 170.12 182.74H121.2C110.58 182.74 101.52 189.41 97.9701 198.78L97.9001 198.98L97.8601 199.08L77.0601 255.79L96.3701 258.15V321.13H201.48L209.34 223.11H227.62V182.54L170.83 182.74Z" fill="white"/>
<path opacity="0.05" d="M228.16 182.54L172.32 182.77C193.26 183.65 209.96 200.89 209.96 222.04L209.87 223.11H228.15V182.54H228.16Z" fill="#1B1B25"/>
<path d="M208.66 225.78L188.9 221.86C186.56 221.4 184.27 222.93 183.8 225.27L179.85 245.16L174.74 270.94C174.28 273.28 175.81 275.57 178.15 276.04L186.24 277.64L197.91 279.96C200.25 280.42 202.54 278.89 203.01 276.55L204.95 266.78L208.1 250.9L212.07 230.88C212.53 228.54 211 226.25 208.66 225.78Z" fill="#1B1B25"/>
<path d="M210.73 252.32C210.48 251.8 210.09 251.39 209.62 251.11C209.54 250.99 209.47 250.86 209.38 250.74L208.91 250.8C208.57 250.7 208.2 250.65 207.84 250.68C203.87 250.99 194.32 251.73 188.48 252.19C185.32 252.44 182.16 251.78 179.36 250.3L178.89 250.05L179.86 245.16C178.81 246.44 177.75 247.71 176.63 248.9C176.06 248.93 172.8 249.22 169.75 251.49C168.62 252.29 167.51 253.35 166.56 254.76C165.37 256.54 164.08 257.77 162.98 258.6C162.33 259.07 161.76 259.4 161.33 259.61L161.29 259.56L117.26 270.46L117.06 270.51L119.29 260.6L78.7703 255.69L69.8603 294.48C67.1603 306.25 74.5103 317.98 86.2803 320.68C90.5003 321.65 94.7103 321.1 98.3603 319.43C99.0703 319.18 99.7803 318.88 100.48 318.55L175.01 281.86L185.11 278.07C185.11 278.07 185.52 277.91 186.23 277.62L186.08 277.59C190.69 275.71 216.54 264.54 210.72 252.3L210.73 252.32Z" fill="#FEC29E"/>
<path opacity="0.17" d="M72.1503 283.76C72.1103 283.97 72.0803 284.1 72.0703 284.16L72.1503 283.76Z" fill="#FF887C"/>
<path opacity="0.17" d="M116.98 270.67C117.89 266.47 117.63 266.83 119.01 260.81L72.4604 282.19C72.4604 282.19 77.0705 280.8 83.4405 279.11C84.0305 278.89 84.6305 278.7 85.2505 278.53L116.98 270.68V270.67Z" fill="#FF887C"/>
<path opacity="0.17" d="M72.2604 283.18L72.1504 283.75C72.1804 283.6 72.2204 283.41 72.2604 283.18Z" fill="#FF887C"/>
<path opacity="0.17" d="M72.0705 284.16C72.0605 284.22 72.0605 284.22 72.0705 284.16V284.16Z" fill="#FF887C"/>
<path opacity="0.17" d="M72.4603 282.19C72.3803 282.6 72.3203 282.91 72.2603 283.19C72.3603 282.69 72.4603 282.19 72.4603 282.19Z" fill="#FF887C"/>
<path opacity="0.35" d="M122.76 261.31C122.76 261.31 122.72 261.31 122.7 261.31L113.86 260.22C113.59 260.19 113.39 259.94 113.43 259.66C113.46 259.39 113.72 259.19 113.99 259.23L122.35 260.26L127 230.57C127.04 230.3 127.3 230.11 127.57 230.15C127.84 230.19 128.03 230.45 127.99 230.72L123.26 260.89C123.22 261.14 123.01 261.31 122.77 261.31H122.76Z" fill="#1B1B25"/>
<path opacity="0.08" d="M133.09 266.52L153.05 266.02C156.77 266.51 162.7 263.15 162.01 259.46L133.09 266.52Z" fill="#FF887C"/>
<path d="M196.04 169.96L189.25 123.77C188.51 118.71 187.04 113.94 184.97 109.53L188.65 108.94C188.65 108.94 186.06 71.45 144.02 80.4C139.88 79.97 135.62 80.04 131.31 80.68C110.88 83.68 96.7603 102.67 99.7603 123.1L103.72 150.02C106.72 170.45 125.71 184.57 146.14 181.57L192.46 174.76C194.78 174.42 196.38 172.27 196.04 169.95V169.96Z" fill="#1B1B25"/>
<path d="M168.15 107.47C167.9 107.47 167.69 107.29 167.65 107.04C167.61 106.77 167.8 106.51 168.08 106.48L181.6 104.63C181.71 104.62 181.81 104.56 181.87 104.47C181.91 104.42 181.96 104.32 181.94 104.18C179.75 91.99 168.53 86.37 168.41 86.31C168.16 86.19 168.06 85.89 168.18 85.64C168.3 85.39 168.6 85.29 168.85 85.41C168.97 85.47 180.64 91.3 182.92 104C182.99 104.37 182.9 104.74 182.68 105.05C182.46 105.36 182.11 105.57 181.74 105.62L168.22 107.47C168.22 107.47 168.17 107.47 168.15 107.47Z" fill="#FCF0E3"/>
<path d="M181.18 110.15L144.17 116.1L135.19 102.81C136.95 117.63 126.02 127.21 126.02 127.21C126.02 127.21 125.91 127.06 125.71 126.78L125.4 126.84C119.61 127.92 115.76 133.55 116.84 139.34C117.92 145.13 123.55 148.98 129.34 147.9L130.05 147.77C131.32 153.32 134.17 158.14 138.06 161.79V185.51C138.06 193.92 144.94 200.8 153.35 200.8C161.76 200.8 168.64 193.92 168.64 185.51V166.78C174.73 163.98 179.5 159.08 182.22 153.16L182.24 153.13C185.55 147.59 186.93 140.87 185.65 134.02L181.18 110.15Z" fill="#FEC29E"/>
<path opacity="0.32" d="M163.72 166.05C150.01 168.62 136.77 160.51 132.57 147.58C132.43 147.16 130.02 147.71 130.08 147.97C131.38 153.47 134.26 158.23 138.14 161.85C138.86 169.6 145.42 175.73 153.36 175.73C159.23 175.73 164.34 172.37 166.9 167.49C173.83 164.86 179.27 159.61 182.24 153.12C178.34 159.65 171.78 164.53 163.72 166.04V166.05Z" fill="#FF887C"/>
<path d="M124.28 140.86C124.13 140.86 123.98 140.79 123.88 140.67C123.71 140.45 123.75 140.14 123.97 139.97L127.3 137.39L123.06 133.39C122.86 133.2 122.85 132.88 123.04 132.68C123.23 132.48 123.55 132.47 123.75 132.66L128.42 137.07C128.53 137.17 128.58 137.31 128.58 137.46C128.58 137.61 128.5 137.74 128.39 137.83L124.6 140.77C124.51 140.84 124.4 140.88 124.29 140.88L124.28 140.86Z" fill="#FB8E77"/>
<path d="M150.91 122.63C151.36 122.62 151.82 122.35 152.27 122.11C152.73 121.86 153.19 121.63 153.6 121.43C154.01 121.24 154.49 121.03 154.98 120.84C155.46 120.64 155.96 120.46 156.25 120.13C156.53 119.82 156.48 119.32 155.81 118.99C155.18 118.66 153.89 118.58 152.53 119.21C151.17 119.85 150.42 120.88 150.28 121.57C150.12 122.28 150.48 122.64 150.91 122.62V122.63Z" fill="#1B1B25"/>
<path d="M177.44 118.02C177.01 118.13 176.49 118 175.99 117.9C175.48 117.79 174.97 117.69 174.52 117.62C174.07 117.55 173.55 117.49 173.04 117.44C172.53 117.38 171.99 117.35 171.62 117.11C171.26 116.89 171.18 116.4 171.72 115.89C172.24 115.4 173.45 114.97 174.94 115.2C176.42 115.44 177.43 116.22 177.75 116.84C178.1 117.48 177.85 117.92 177.44 118.02Z" fill="#1B1B25"/>
<path d="M162.45 143.32C158.35 143.32 155.61 140.1 155.58 140.06C155.4 139.85 155.43 139.53 155.64 139.36C155.85 139.18 156.17 139.21 156.34 139.42C156.5 139.61 160.29 144.04 165.59 141.59C165.84 141.47 166.14 141.59 166.25 141.83C166.37 142.08 166.25 142.38 166.01 142.49C164.74 143.08 163.54 143.31 162.44 143.31L162.45 143.32Z" fill="#FB8E77"/>
<path d="M165.44 136.34C165.21 136.34 165 136.17 164.95 135.94C164.9 135.67 165.07 135.41 165.34 135.35L168.86 134.66C171.05 134.23 172.47 132.1 172.04 129.92C171.88 129.13 171.12 128.62 170.33 128.77C168.48 129.13 166.68 127.93 166.32 126.08L165.47 121.77C165.42 121.5 165.59 121.24 165.86 121.18C166.13 121.13 166.39 121.3 166.45 121.57L167.3 125.88C167.56 127.19 168.83 128.04 170.14 127.78C170.79 127.65 171.44 127.78 171.99 128.15C172.54 128.52 172.91 129.07 173.03 129.72C173.57 132.45 171.79 135.1 169.06 135.64L165.54 136.33C165.54 136.33 165.47 136.33 165.44 136.33V136.34Z" fill="#FB8E77"/>
<path d="M155.48 131.07C154.81 131.2 154.16 130.75 154.04 130.08L153.76 128.6C153.63 127.93 154.08 127.28 154.75 127.16C155.42 127.03 156.07 127.48 156.19 128.15L156.47 129.63C156.6 130.3 156.15 130.95 155.48 131.07Z" fill="#1B1B25"/>
<path d="M176.45 127.66C175.78 127.79 175.13 127.34 175.01 126.67L174.73 125.19C174.6 124.52 175.05 123.87 175.72 123.75C176.39 123.62 177.04 124.07 177.16 124.74L177.44 126.22C177.57 126.89 177.12 127.54 176.45 127.66Z" fill="#1B1B25"/>
<path opacity="0.17" d="M154.6 136.64L150.38 137.11C149.54 137.2 148.78 136.6 148.69 135.76C148.6 134.92 149.2 134.16 150.04 134.07L154.26 133.6C155.1 133.51 155.86 134.11 155.95 134.95C156.04 135.79 155.44 136.55 154.6 136.64Z" fill="#FF887C"/>
<path opacity="0.17" d="M183 132.17L178.78 132.64C177.94 132.73 177.18 132.13 177.09 131.29C177 130.45 177.6 129.69 178.44 129.6L182.66 129.13C183.5 129.04 184.26 129.64 184.35 130.48C184.44 131.32 183.84 132.08 183 132.17Z" fill="#FF887C"/>
<path d="M170.49 154.21C170.39 154.21 170.28 154.18 170.2 154.11C168.23 152.67 166.19 154.06 166.1 154.11C165.87 154.27 165.56 154.21 165.4 153.99C165.24 153.76 165.3 153.45 165.52 153.29C166.45 152.64 168.74 151.8 170.78 153.29C171 153.45 171.05 153.77 170.89 153.99C170.79 154.12 170.64 154.2 170.49 154.2V154.21Z" fill="#FB8E77"/>
</svg>
