<svg width="22" height="25" viewBox="0 0 22 25" fill="none" xmlns="http://www.w3.org/2000/svg">
<path d="M17.4347 0.583252C19.3263 0.583252 20.8597 1.73454 20.8597 3.15476V22.001C20.8597 23.3962 18.626 24.1061 17.292 23.1342L10.9787 18.5351L4.66532 23.1342C3.33138 24.1056 1.09766 23.3962 1.09766 22.0006V3.15476C1.09766 1.73454 2.63107 0.583252 4.52266 0.583252H17.4347Z" fill="white"/>
<path d="M18.639 24.1425C18.1481 24.1425 17.6573 24.0217 17.2328 23.7679L10.7854 19.9858C10.6793 19.9254 10.5333 19.9254 10.4272 19.9858L3.97985 23.7679C3.18388 24.2392 2.17565 24.2754 1.33988 23.8525C0.517381 23.4417 0 22.6562 0 21.7862V2.11458C0 0.9425 1.03476 0 2.32158 0H18.9176C20.1911 0 21.2259 0.9425 21.2259 2.11458V21.7862C21.2259 22.6442 20.7085 23.4417 19.8727 23.8525C19.488 24.0458 19.0635 24.1425 18.639 24.1425ZM18.3206 22.2454C18.5859 22.4025 18.838 22.3058 18.9308 22.2696C19.0237 22.2212 19.236 22.0883 19.236 21.7862V2.11458C19.236 1.94542 19.09 1.8125 18.9043 1.8125H2.32158C2.13585 1.8125 1.98993 1.94542 1.98993 2.11458V21.7862C1.98993 22.0762 2.20218 22.2212 2.29505 22.2696C2.38791 22.3179 2.63997 22.4146 2.90529 22.2454L9.35265 18.4633C10.1221 18.0162 11.1038 18.0162 11.8732 18.4633L18.3206 22.2454Z" fill="white"/>
</svg>
