<svg width="21" height="25" viewBox="0 0 21 25" fill="none" xmlns="http://www.w3.org/2000/svg">
<path d="M17.8103 24.5592C17.3633 24.5592 16.9162 24.4384 16.5295 24.1846L10.657 20.4025C10.5603 20.3421 10.4274 20.3421 10.3308 20.4025L4.45825 24.1846C3.73325 24.6559 2.81492 24.6921 2.05367 24.2692C1.3045 23.8584 0.833252 23.0729 0.833252 22.2029V2.53127C0.833252 1.35919 1.77575 0.416687 2.94784 0.416687H18.0641C19.2241 0.416687 20.1666 1.35919 20.1666 2.53127V22.2029C20.1666 23.0609 19.6953 23.8584 18.9341 24.2692C18.5837 24.4625 18.197 24.5592 17.8103 24.5592ZM17.5203 22.6621C17.762 22.8192 17.9916 22.7225 18.0762 22.6863C18.1608 22.6379 18.3541 22.505 18.3541 22.2029V2.53127C18.3541 2.3621 18.2212 2.22919 18.052 2.22919H2.94784C2.77867 2.22919 2.64575 2.3621 2.64575 2.53127V22.2029C2.64575 22.4929 2.83909 22.6379 2.92367 22.6863C3.00825 22.7346 3.23784 22.8313 3.4795 22.6621L9.352 18.88C10.0528 18.4329 10.947 18.4329 11.6478 18.88L17.5203 22.6621Z" fill="#ECECEC"/>
</svg>
